<?xml version="1.0" encoding="UTF-8"?>
<svg id="a" data-name="레이어 1" xmlns="http://www.w3.org/2000/svg" width="1920" height="1200" viewBox="0 0 1920 1200">
  <g>
    <g>
      <polygon points="1200.015 .001 1200.015 720.003 960.009 720.003 960.009 959.992 480.013 959.992 480.013 479.997 720.002 479.997 720.002 239.99 480.013 239.99 480.013 .001 1200.015 .001" fill="#eae671"/>
      <polygon points="1920 .001 1920 1199.999 0 1199.999 0 .001 480.013 .001 480.013 239.99 720.002 239.99 720.002 479.997 480.013 479.997 480.013 959.992 960.009 959.992 960.009 720.003 1200.015 720.003 1200.015 .001 1920 .001" fill="#3a9dbf"/>
    </g>
    <g>
      <rect y=".001" width="239.989" height="239.989" fill="none" stroke="#000" stroke-miterlimit="10"/>
      <rect x="239.989" y=".001" width="239.989" height="239.989" fill="none" stroke="#000" stroke-miterlimit="10"/>
      <rect x="479.978" y=".001" width="239.989" height="239.989" fill="none" stroke="#000" stroke-miterlimit="10"/>
      <rect x="719.967" y=".001" width="239.989" height="239.989" fill="none" stroke="#000" stroke-miterlimit="10"/>
      <rect x="959.957" y=".001" width="239.989" height="239.989" fill="none" stroke="#000" stroke-miterlimit="10"/>
      <rect x="1199.946" y=".001" width="239.989" height="239.989" fill="none" stroke="#000" stroke-miterlimit="10"/>
      <rect x="1439.935" y=".001" width="239.989" height="239.989" fill="none" stroke="#000" stroke-miterlimit="10"/>
      <rect x="1679.924" y=".001" width="239.989" height="239.989" fill="none" stroke="#000" stroke-miterlimit="10"/>
      <rect y="239.99" width="239.989" height="239.989" fill="none" stroke="#000" stroke-miterlimit="10"/>
      <rect x="239.989" y="239.99" width="239.989" height="239.989" fill="none" stroke="#000" stroke-miterlimit="10"/>
      <rect x="479.978" y="239.99" width="239.989" height="239.989" fill="none" stroke="#000" stroke-miterlimit="10"/>
      <rect x="719.967" y="239.99" width="239.989" height="239.989" fill="none" stroke="#000" stroke-miterlimit="10"/>
      <rect x="959.957" y="239.99" width="239.989" height="239.989" fill="none" stroke="#000" stroke-miterlimit="10"/>
      <rect x="1199.946" y="239.99" width="239.989" height="239.989" fill="none" stroke="#000" stroke-miterlimit="10"/>
      <rect x="1439.935" y="239.99" width="239.989" height="239.989" fill="none" stroke="#000" stroke-miterlimit="10"/>
      <rect x="1679.924" y="239.99" width="239.989" height="239.989" fill="none" stroke="#000" stroke-miterlimit="10"/>
      <rect y="479.979" width="239.989" height="239.989" fill="none" stroke="#000" stroke-miterlimit="10"/>
      <rect x="239.989" y="479.979" width="239.989" height="239.989" fill="none" stroke="#000" stroke-miterlimit="10"/>
      <rect x="479.978" y="479.979" width="239.989" height="239.989" fill="none" stroke="#000" stroke-miterlimit="10"/>
      <rect x="719.967" y="479.979" width="239.989" height="239.989" fill="none" stroke="#000" stroke-miterlimit="10"/>
      <rect x="959.957" y="479.979" width="239.989" height="239.989" fill="none" stroke="#000" stroke-miterlimit="10"/>
      <rect x="1199.946" y="479.979" width="239.989" height="239.989" fill="none" stroke="#000" stroke-miterlimit="10"/>
      <rect x="1439.935" y="479.979" width="239.989" height="239.989" fill="none" stroke="#000" stroke-miterlimit="10"/>
      <rect x="1679.924" y="479.979" width="239.989" height="239.989" fill="none" stroke="#000" stroke-miterlimit="10"/>
      <rect y="719.968" width="239.989" height="239.989" fill="none" stroke="#000" stroke-miterlimit="10"/>
      <rect x="239.989" y="719.968" width="239.989" height="239.989" fill="none" stroke="#000" stroke-miterlimit="10"/>
      <rect x="479.978" y="719.968" width="239.989" height="239.989" fill="none" stroke="#000" stroke-miterlimit="10"/>
      <rect x="719.967" y="719.968" width="239.989" height="239.989" fill="none" stroke="#000" stroke-miterlimit="10"/>
      <rect x="959.957" y="719.968" width="239.989" height="239.989" fill="none" stroke="#000" stroke-miterlimit="10"/>
      <rect x="1199.946" y="719.968" width="239.989" height="239.989" fill="none" stroke="#000" stroke-miterlimit="10"/>
      <rect x="1439.935" y="719.968" width="239.989" height="239.989" fill="none" stroke="#000" stroke-miterlimit="10"/>
      <rect x="1679.924" y="719.968" width="239.989" height="239.989" fill="none" stroke="#000" stroke-miterlimit="10"/>
      <rect y="959.958" width="239.989" height="239.989" fill="none" stroke="#000" stroke-miterlimit="10"/>
      <rect x="239.989" y="959.958" width="239.989" height="239.989" fill="none" stroke="#000" stroke-miterlimit="10"/>
      <rect x="479.978" y="959.958" width="239.989" height="239.989" fill="none" stroke="#000" stroke-miterlimit="10"/>
      <rect x="719.967" y="959.958" width="239.989" height="239.989" fill="none" stroke="#000" stroke-miterlimit="10"/>
      <rect x="959.957" y="959.958" width="239.989" height="239.989" fill="none" stroke="#000" stroke-miterlimit="10"/>
      <rect x="1199.946" y="959.958" width="239.989" height="239.989" fill="none" stroke="#000" stroke-miterlimit="10"/>
      <rect x="1439.935" y="959.958" width="239.989" height="239.989" fill="none" stroke="#000" stroke-miterlimit="10"/>
      <rect x="1679.924" y="959.958" width="239.989" height="239.989" fill="none" stroke="#000" stroke-miterlimit="10"/>
    </g>
  </g>
  <g>
    <rect x="1556.598" y="803.821" width="284.993" height="314.813" fill="#fff" stroke="#fff" stroke-miterlimit="10"/>
    <g>
      <path d="M1605.635,1068.21v-21.294c0-1.484,.133-2.417,.399-2.798,.267-.38,1.065-.57,2.398-.57,.608,0,1.094,.038,1.455,.114,.361,.077,.638,.229,.828,.458,.19,.229,.305,.487,.343,.772,.037,.286,.057,.735,.057,1.345,.229,4.045,1.342,7.498,3.34,10.359s4.539,4.922,7.621,6.182c3.083,1.26,5.946,2.118,8.593,2.575,2.645,.459,5.337,.687,8.077,.687,5.442,0,9.335-1.4,11.675-4.202,2.341-2.802,3.512-5.956,3.512-9.463,0-3.659-1.562-7.071-4.685-10.236-1.257-1.181-2.65-1.965-4.183-2.352s-5.084-1.283-10.657-2.69c-7.079-1.564-11.932-2.853-14.559-3.864-2.626-1.012-5.252-2.834-7.878-5.469-4.225-4.465-6.337-9.675-6.337-15.629,0-6.603,2.274-12.151,6.824-16.648,4.549-4.496,11.049-6.744,19.499-6.744,7.991,0,14.681,2.094,20.072,6.283l5.541-5.049c.963-.822,1.766-1.234,2.408-1.234h.06c1.004,0,1.626,.209,1.867,.628,.24,.419,.361,1.294,.361,2.626v21.408c0,1.408-.146,2.304-.437,2.684-.291,.381-1.161,.57-2.612,.57-1.287,0-2.075-.134-2.365-.401-.291-.268-.561-1.146-.809-2.64-.854-5.01-2.604-9.084-5.253-12.221-2.648-3.136-5.456-5.211-8.42-6.224-2.965-1.014-6.15-1.521-9.56-1.521-5.15,0-8.864,1.258-11.143,3.773-2.279,2.516-3.418,5.323-3.418,8.424,0,3.253,1.045,5.919,3.136,7.999s4.377,3.442,6.859,4.085l16.967,3.546c5.923,1.195,10.959,4.079,15.109,8.648,4.15,4.57,6.226,10.019,6.226,16.343,0,6.695-2.3,12.545-6.897,17.548-4.6,5.002-11.518,7.504-20.754,7.504-9.505,0-17.057-2.133-22.654-6.396l-5.866,5.32c-.832,.68-1.644,1.038-2.434,1.076-1.04,0-1.685-.22-1.935-.657s-.374-1.321-.374-2.654Z"/>
      <path d="M1676.482,1057.592c0-11.151,12.579-17.279,37.736-18.383v-3.939c0-9.21-4.151-13.815-12.453-13.815-3.085,0-5.938,.267-8.559,.799,1.904,1.181,2.857,3.103,2.857,5.767,0,2.321-.79,4.13-2.369,5.423-1.579,1.295-3.436,1.941-5.567,1.941-1.732,0-3.336-.646-4.81-1.941-1.475-1.293-2.211-3.102-2.211-5.423,0-7.155,6.949-10.752,20.849-10.79,8.37,0,14.732,1.637,19.088,4.909,4.355,3.274,6.533,7.65,6.533,13.131v25.119c0,1.104,.076,1.884,.229,2.341,.151,.457,.771,.904,1.855,1.342s2.769,.656,5.053,.656c.685,0,1.179,.038,1.484,.114,.304,.076,.637,.305,.999,.685,.361,.381,.542,1.009,.542,1.884,0,1.257-.276,2.037-.828,2.341-.552,.306-1.532,.457-2.939,.457h-5.595c-2.894,0-5.233-.275-7.022-.828-1.789-.551-3.017-1.37-3.682-2.454-.667-1.085-1.076-1.998-1.228-2.74-.152-.742-.229-1.741-.229-2.998-3.26,6.471-8.907,9.706-16.942,9.706-2.347,0-4.712-.172-7.098-.515-2.385-.342-4.837-.96-7.356-1.855-2.52-.894-4.539-2.273-6.059-4.139-1.52-1.864-2.279-4.129-2.279-6.793Zm13.359-.114c0,2.572,1.083,4.747,3.248,6.524,2.166,1.778,4.8,2.667,7.9,2.667,.995,0,2.112-.161,3.349-.484,1.236-.322,2.666-.873,4.289-1.651,1.624-.778,2.961-2.098,4.013-3.958s1.578-4.082,1.578-6.664v-11.049c-1.717,.077-3.339,.21-4.864,.399-1.526,.191-3.577,.619-6.151,1.285-2.575,.666-4.759,1.465-6.552,2.397s-3.376,2.322-4.75,4.167c-1.374,1.847-2.06,3.968-2.06,6.366Z"/>
      <path d="M1740.536,1023.795v-4.225c5.442-.152,9.686-2.55,12.731-7.193,3.044-4.644,4.604-10.104,4.681-16.385h5.48v22.322h17.07v5.48h-17.07v32.255c0,6.775,2.255,10.162,6.767,10.162,1.856,0,3.486-.875,4.889-2.626,1.402-1.75,2.104-4.453,2.104-8.106v-5.938h5.48v6.165c0,4.378-1.262,8.003-3.786,10.876-2.524,2.874-5.951,4.311-10.279,4.311-12.355,0-18.532-5.024-18.532-15.072v-32.026h-9.534Z"/>
    </g>
    <g>
      <g>
        <g>
          <path d="M1628.114,886.812c-12.117,0-21.976-9.858-21.976-21.976s9.858-21.976,21.976-21.976,21.977,9.858,21.977,21.976-9.858,21.976-21.977,21.976Z" fill="#3a9dbf"/>
          <path d="M1628.115,843.362c11.842,0,21.476,9.634,21.476,21.476s-9.634,21.476-21.476,21.476-21.476-9.634-21.476-21.476,9.634-21.476,21.476-21.476m0-1c-12.413,0-22.476,10.063-22.476,22.476s10.063,22.476,22.476,22.476,22.476-10.063,22.476-22.476-10.063-22.476-22.476-22.476h0Z"/>
        </g>
        <g>
          <path d="M1670.936,865.776c0-3.318,1.062-6.136,3.185-8.452,2.122-2.316,4.661-3.476,7.614-3.476,2.976,0,5.524,1.161,7.647,3.483,2.122,2.321,3.184,5.136,3.184,8.444,0,3.267-1.063,6.037-3.192,8.31-2.128,2.273-4.674,3.41-7.639,3.41-2.922,0-5.452-1.132-7.591-3.394-2.139-2.263-3.208-5.038-3.208-8.326Zm3.351-.462c0,2.015,.238,3.793,.715,5.336s1.099,2.732,1.866,3.57,1.564,1.458,2.391,1.861c.825,.402,1.661,.604,2.509,.604,.826,0,1.644-.195,2.453-.588,.811-.393,1.602-1.002,2.375-1.829,.772-.827,1.402-2.015,1.89-3.562,.486-1.548,.73-3.345,.73-5.392,0-1.59-.17-3.024-.509-4.302s-.772-2.304-1.302-3.077c-.529-.774-1.136-1.416-1.818-1.925s-1.345-.861-1.985-1.058-1.263-.294-1.866-.294c-.762,0-1.54,.17-2.334,.509-.794,.34-1.591,.883-2.391,1.63-.799,.748-1.453,1.855-1.961,3.324s-.763,3.199-.763,5.192Z"/>
          <path d="M1697.552,874.999c-1.376-1.433-2.064-3.181-2.064-5.245s.678-3.839,2.033-5.323c1.355-1.485,3.027-2.229,5.019-2.229,1.298,0,2.435,.315,3.411,.945,.976,.63,1.464,1.479,1.464,2.549,0,.477-.135,.85-.404,1.12-.27,.27-.613,.404-1.03,.404-.444,0-.798-.141-1.061-.422-.264-.282-.395-.641-.395-1.076,0-.191,.03-.383,.093-.574,.062-.191,.208-.388,.44-.59s.55-.318,.952-.351c-.765-.797-1.89-1.195-3.376-1.195h-.063c-1.101,0-2.106,.52-3.018,1.56-.91,1.04-1.365,2.749-1.365,5.126,0,1.242,.15,2.316,.452,3.224s.701,1.595,1.199,2.062,.99,.81,1.478,1.027c.486,.217,.969,.326,1.444,.326,2.097,0,3.5-1.144,4.209-3.43,.059-.212,.188-.318,.385-.318,.283,0,.425,.105,.425,.317,0,.106-.041,.297-.125,.571-.083,.276-.255,.631-.515,1.064-.26,.435-.574,.839-.943,1.215s-.879,.701-1.529,.977-1.381,.413-2.191,.413c-1.906,0-3.547-.716-4.924-2.147Z"/>
          <path d="M1709.717,869.62c0-2.044,.656-3.791,1.969-5.241,1.313-1.451,2.912-2.177,4.797-2.177,1.905,0,3.353,.617,4.343,1.85s1.485,2.733,1.485,4.503c0,.344-.043,.549-.127,.615-.085,.066-.312,.1-.684,.1h-9.083c0,2.218,.327,3.847,.984,4.887,.91,1.453,2.133,2.181,3.668,2.181,.214,0,.448-.021,.704-.063,.256-.043,.646-.157,1.168-.343s1.013-.528,1.471-1.026c.459-.499,.821-1.141,1.088-1.927,.062-.308,.194-.456,.397-.445,.275,0,.413,.128,.413,.382,0,.19-.104,.5-.31,.928-.207,.428-.506,.896-.897,1.402-.392,.508-.967,.951-1.724,1.332-.757,.38-1.591,.57-2.501,.57-1.905,0-3.576-.723-5.011-2.167-1.435-1.445-2.151-3.231-2.151-5.359Zm2.731-1.065h7.718c0-.454-.039-.934-.119-1.44-.079-.507-.232-1.111-.46-1.813s-.606-1.275-1.136-1.719-1.186-.665-1.969-.665c-.35,0-.713,.074-1.088,.222-.376,.148-.792,.401-1.247,.761-.455,.358-.842,.944-1.159,1.758-.317,.812-.498,1.778-.54,2.897Z"/>
          <path d="M1724.614,873.674c0-1.846,1.105-3.257,3.316-4.232,1.327-.626,3.36-1.022,6.101-1.188v-1.188c0-1.34-.371-2.367-1.113-3.079-.741-.713-1.581-1.069-2.519-1.069-1.605,0-2.794,.503-3.564,1.509,.622,.021,1.045,.193,1.27,.517,.225,.322,.337,.648,.337,.977,0,.434-.13,.791-.391,1.071-.26,.281-.609,.421-1.047,.421-.418,0-.765-.135-1.04-.404-.275-.271-.413-.644-.413-1.12,0-1.059,.479-1.938,1.435-2.636,.957-.699,2.117-1.049,3.48-1.049,1.837,0,3.368,.597,4.593,1.79,.383,.369,.67,.792,.861,1.267,.191,.476,.298,.869,.318,1.181,.021,.311,.032,.772,.032,1.385v6.499c0,.127,.021,.296,.062,.507,.043,.212,.161,.452,.355,.722s.455,.403,.78,.403c.778,0,1.162-.691,1.152-2.075v-1.822h.81v1.829c0,1.155-.301,1.959-.903,2.409s-1.182,.676-1.736,.676c-.719,0-1.306-.266-1.761-.798-.454-.531-.714-1.159-.776-1.882-.346,.829-.91,1.512-1.694,2.049-.785,.537-1.711,.806-2.779,.806-.777,0-1.53-.099-2.261-.295-.729-.196-1.396-.567-2-1.114-.604-.548-.905-1.235-.905-2.063Zm2.699-.032c0,.812,.264,1.481,.793,2.005,.528,.523,1.164,.785,1.908,.785,.959,0,1.869-.353,2.728-1.058,.859-.706,1.289-1.754,1.289-3.144v-3.263c-2.397,.085-4.117,.605-5.157,1.561-1.04,.956-1.561,1.994-1.561,3.113Z"/>
          <path d="M1740.542,876.781v-1.017c1.161,0,1.875-.071,2.142-.214s.399-.563,.399-1.261v-8.707c0-.804-.142-1.306-.424-1.507s-.988-.302-2.117-.302v-1.016l4.575-.35v3.411c1.018-2.274,2.625-3.411,4.821-3.411,1.632,0,2.771,.401,3.418,1.205,.478,.54,.766,1.111,.867,1.714,.101,.603,.15,1.687,.15,3.252v6.201c.021,.455,.207,.732,.557,.833,.349,.101,1.011,.15,1.984,.15v1.017c-2.213-.064-3.43-.097-3.652-.097-.17,0-1.393,.032-3.669,.097v-1.017c1.154,0,1.866-.071,2.137-.214,.27-.143,.404-.563,.404-1.261v-7.566c0-1.1-.17-1.975-.509-2.625-.34-.649-.977-.975-1.91-.975-1.125,0-2.139,.471-3.041,1.411-.901,.941-1.353,2.205-1.353,3.791v5.964c0,.697,.136,1.118,.407,1.261s.983,.214,2.134,.214v1.017c-2.218-.064-3.433-.097-3.645-.097-.17,0-1.396,.032-3.677,.097Z"/>
        </g>
        <path d="M1616.966,876.781v-1.017c1.927-.042,3.14-.769,3.637-2.181l6.733-19.434c.085-.265,.175-.438,.271-.523s.265-.127,.508-.127c.127,0,.23,.011,.31,.031,.08,.021,.146,.069,.199,.144,.053,.073,.09,.132,.111,.174,.021,.043,.063,.144,.127,.302l7.02,20.318c.169,.538,.429,.888,.777,1.051,.35,.164,1.017,.245,2.001,.245h.572v1.017c-1.366-.064-2.785-.097-4.256-.097-2.341,0-3.902,.032-4.686,.097v-1.017c1.8,0,2.7-.326,2.7-.979,0-.042-.032-.194-.096-.458l-1.715-4.946h-8.036l-1.509,4.234c-.042,.085-.063,.248-.063,.49,0,.453,.212,.843,.636,1.17,.423,.326,1.026,.489,1.811,.489v1.017c-2.086-.064-3.335-.097-3.748-.097-.71,0-1.811,.032-3.304,.097Zm6.527-8.417h7.321l-3.669-10.577-3.652,10.577Z"/>
      </g>
      <g>
        <g>
          <path d="M1628.114,954.618c-12.117,0-21.976-9.858-21.976-21.976s9.858-21.976,21.976-21.976,21.977,9.858,21.977,21.976-9.858,21.976-21.977,21.976Z" fill="#eae671"/>
          <path d="M1628.115,911.167c11.842,0,21.476,9.634,21.476,21.476s-9.634,21.476-21.476,21.476-21.476-9.634-21.476-21.476,9.634-21.476,21.476-21.476m0-1c-12.413,0-22.476,10.063-22.476,22.476s10.063,22.476,22.476,22.476,22.476-10.063,22.476-22.476-10.063-22.476-22.476-22.476h0Z"/>
        </g>
        <g>
          <path d="M1670.189,944.586v-1.017h.778c1.175,0,1.897-.098,2.167-.293,.271-.196,.405-.611,.405-1.246v-17.122c0-.624-.138-1.034-.413-1.229-.275-.196-.995-.294-2.159-.294h-.778v-1.017c.762,.063,2.408,.096,4.938,.096,2.859,0,4.68-.032,5.464-.096v1.017h-1.08c-.995,0-1.721,.063-2.176,.19s-.721,.278-.794,.452c-.074,.175-.111,.479-.111,.912v17.329c0,.561,.082,.918,.246,1.071s.611,.229,1.342,.229h2.668c1.101,0,2.049-.163,2.843-.49s1.402-.696,1.826-1.107c.423-.412,.775-1.005,1.056-1.781,.28-.775,.456-1.413,.526-1.913s.168-1.192,.292-2.076l.81,.042-.905,8.343h-16.944Z"/>
          <path d="M1690.804,941.479c0-1.846,1.105-3.257,3.316-4.232,1.327-.626,3.36-1.022,6.101-1.188v-1.188c0-1.34-.371-2.367-1.113-3.079-.741-.713-1.581-1.069-2.519-1.069-1.605,0-2.794,.503-3.564,1.509,.622,.021,1.045,.193,1.27,.517,.225,.322,.337,.648,.337,.977,0,.434-.13,.791-.391,1.071-.26,.281-.609,.421-1.047,.421-.418,0-.765-.135-1.04-.404-.275-.271-.413-.644-.413-1.12,0-1.059,.479-1.938,1.435-2.636,.957-.699,2.117-1.049,3.48-1.049,1.837,0,3.368,.597,4.593,1.79,.383,.369,.67,.792,.861,1.267,.191,.476,.298,.869,.318,1.181,.021,.311,.032,.772,.032,1.385v6.499c0,.127,.021,.296,.062,.507,.043,.212,.161,.452,.355,.722s.455,.403,.78,.403c.778,0,1.162-.691,1.152-2.075v-1.822h.81v1.829c0,1.155-.301,1.959-.903,2.409s-1.182,.676-1.736,.676c-.719,0-1.306-.266-1.761-.798-.454-.531-.714-1.159-.776-1.882-.346,.829-.91,1.512-1.694,2.049-.785,.537-1.711,.806-2.779,.806-.777,0-1.53-.099-2.261-.295-.729-.196-1.396-.567-2-1.114-.604-.548-.905-1.235-.905-2.063Zm2.699-.032c0,.812,.264,1.481,.793,2.005,.528,.523,1.164,.785,1.908,.785,.959,0,1.869-.353,2.728-1.058,.859-.706,1.289-1.754,1.289-3.144v-3.263c-2.397,.085-4.117,.605-5.157,1.561-1.04,.956-1.561,1.994-1.561,3.113Z"/>
          <path d="M1706.731,944.586v-1.017c1.161,0,1.875-.071,2.142-.214s.399-.563,.399-1.261v-8.707c0-.804-.142-1.306-.424-1.507s-.988-.302-2.117-.302v-1.016l4.575-.35v3.411c1.018-2.274,2.625-3.411,4.821-3.411,1.632,0,2.771,.401,3.418,1.205,.478,.54,.766,1.111,.867,1.714,.101,.603,.15,1.687,.15,3.252v6.201c.021,.455,.207,.732,.557,.833,.349,.101,1.011,.15,1.984,.15v1.017c-2.213-.064-3.43-.097-3.652-.097-.17,0-1.393,.032-3.669,.097v-1.017c1.154,0,1.866-.071,2.137-.214,.27-.143,.404-.563,.404-1.261v-7.566c0-1.1-.17-1.975-.509-2.625-.34-.649-.977-.975-1.91-.975-1.125,0-2.139,.471-3.041,1.411-.901,.941-1.353,2.205-1.353,3.791v5.964c0,.697,.136,1.118,.407,1.261s.983,.214,2.134,.214v1.017c-2.218-.064-3.433-.097-3.645-.097-.17,0-1.396,.032-3.677,.097Z"/>
          <path d="M1724.852,937.59c0-2.062,.72-3.807,2.16-5.234,1.439-1.428,3.134-2.142,5.082-2.142,1.651,0,3.018,.672,4.098,2.015v-7.033c0-.805-.142-1.308-.424-1.509s-.988-.302-2.117-.302v-1.017l4.685-.349v19.725c0,.805,.141,1.31,.423,1.516,.283,.207,.988,.31,2.118,.31v1.017l-4.78,.365v-2.175c-1.122,1.439-2.573,2.164-4.352,2.175-1.863,0-3.478-.716-4.844-2.146-1.365-1.431-2.049-3.169-2.049-5.215Zm2.7,.032c0,2.019,.312,3.527,.937,4.526,.868,1.392,2.007,2.088,3.415,2.088,1.609,0,2.89-.758,3.843-2.273,.243-.371,.36-.773,.35-1.208v-6.679c0-.435-.116-.832-.35-1.192-.89-1.304-2.06-1.955-3.51-1.955-1.514,0-2.742,.692-3.685,2.077-.667,1.036-1,2.575-1,4.616Z"/>
        </g>
        <path d="M1617.783,944.586v-1.017h.778c1.176,0,1.898-.098,2.168-.293,.27-.196,.405-.611,.405-1.246v-17.122c0-.624-.138-1.034-.413-1.229-.275-.196-.995-.294-2.16-.294h-.778v-1.017h11.947c2.076,0,3.808,.554,5.192,1.66,1.384,1.106,2.077,2.385,2.077,3.835,0,1.196-.515,2.271-1.544,3.224s-2.346,1.583-3.951,1.89c1.8,.19,3.295,.828,4.486,1.911,1.191,1.084,1.786,2.329,1.786,3.734,0,1.591-.683,2.982-2.048,4.175-1.366,1.192-3.098,1.789-5.193,1.789h-12.753Zm6.051-11.911h4.717c1.673,0,2.956-.502,3.852-1.509,.895-1.005,1.342-2.106,1.342-3.303,0-1.059-.357-2.069-1.072-3.033-.715-.963-1.786-1.445-3.216-1.445h-4.034c-.74,0-1.19,.074-1.35,.223-.158,.148-.238,.508-.238,1.08v7.987Zm0,9.595c0,.561,.08,.917,.238,1.07,.159,.153,.609,.229,1.35,.229h4.066c1.556,0,2.784-.51,3.684-1.53,.9-1.02,1.351-2.169,1.351-3.448s-.395-2.466-1.184-3.56c-.789-1.095-1.919-1.642-3.391-1.642h-6.114v8.88Z"/>
      </g>
    </g>
  </g>
</svg>